<svg width="720" height="540" viewBox="0 0 720 540" fill="none" xmlns="http://www.w3.org/2000/svg"><rect width="720" height="540" rx="48" fill="#EAF7FF"/><circle cx="360" cy="220" r="125" fill="#FFFFFF" stroke="#14B8A6" stroke-width="16"/><circle cx="360" cy="220" r="32" fill="#F97316"/><path d="M365 187c55-68 116-51 108 16-4 32-62 36-108-16zM390 235c89 7 111 66 51 97-29 16-61-33-51-97zM329 237c-48 76-110 68-114 0-1-33 57-52 114 0z" fill="#14B8A6" opacity=".85"/><rect x="326" y="329" width="70" height="137" rx="32" fill="#F97316"/><path d="M509 128c48 18 77 50 88 97M517 306c42-18 68-48 80-90" stroke="#FACC15" stroke-width="12" stroke-linecap="round"/><text x="115" y="489" font-size="34" font-family="Arial" font-weight="700" fill="#F97316">Cool Mist Anywhere</text></svg>
