<svg width="720" height="540" viewBox="0 0 720 540" fill="none" xmlns="http://www.w3.org/2000/svg"><rect width="720" height="540" rx="48" fill="#F7F0FF"/><circle cx="570" cy="106" r="75" fill="#14B8A6" opacity=".35"/><path d="M235 138l80-42c26 32 64 32 90 0l80 42 73 90-78 52-32-44v164H272V236l-32 44-78-52 73-90z" fill="#FFFFFF" stroke="#F97316" stroke-width="14" stroke-linejoin="round"/><path d="M314 96c18 18 72 18 90 0v69c-23 20-66 20-90 0V96z" fill="#FDBA74"/><path d="M307 218h106M307 260h106M307 302h106" stroke="#14B8A6" stroke-width="12" stroke-linecap="round" opacity=".55"/><text x="109" y="451" font-size="34" font-family="Arial" font-weight="700" fill="#F97316">Breezy Linen Fit</text></svg>
